<svg width="497" height="497" viewBox="0 0 497 497" fill="none" xmlns="http://www.w3.org/2000/svg">
<g clip-path="url(#clip0_357_658)">
<rect width="496.356" height="496.356" rx="9.99375" fill="white"/>
<rect width="496.356" height="496.356" rx="9.99375" fill="#F4F3F1"/>
<path d="M304.152 180.183C301.572 180.171 299.027 180.786 296.743 181.973C294.459 183.161 292.506 184.884 291.054 186.993C276.221 209.228 268.311 235.271 268.305 261.9C268.305 265.512 269.757 268.976 272.343 271.53C274.929 274.085 278.435 275.519 282.092 275.519H295.88V306.163C295.88 308.872 296.969 311.471 298.909 313.386C300.848 315.302 303.478 316.378 306.221 316.378C308.963 316.378 311.593 315.302 313.533 313.386C315.472 311.471 316.561 308.872 316.561 306.163V192.44C316.566 190.829 316.248 189.233 315.626 187.744C315.004 186.255 314.09 184.902 312.937 183.763C311.784 182.624 310.414 181.721 308.907 181.107C307.399 180.492 305.783 180.178 304.152 180.183ZM244.176 180.523C241.434 180.523 238.803 181.599 236.864 183.515C234.925 185.431 233.835 188.029 233.835 190.738V217.636C233.835 218.54 233.472 219.406 232.826 220.044C232.179 220.683 231.303 221.041 230.388 221.041C229.474 221.041 228.598 220.683 227.951 220.044C227.305 219.406 226.942 218.54 226.942 217.636V190.738C226.942 188.029 225.852 185.431 223.913 183.515C221.974 181.599 219.343 180.523 216.601 180.523C213.858 180.523 211.228 181.599 209.289 183.515C207.35 185.431 206.26 188.029 206.26 190.738V217.636C206.291 218.091 206.222 218.548 206.06 218.974C205.897 219.401 205.644 219.789 205.318 220.111C204.992 220.433 204.599 220.683 204.167 220.844C203.735 221.004 203.274 221.071 202.813 221.041C202.353 221.071 201.891 221.004 201.459 220.844C201.027 220.683 200.634 220.433 200.308 220.111C199.982 219.789 199.729 219.401 199.566 218.974C199.404 218.548 199.336 218.091 199.366 217.636V190.738C199.366 188.029 198.277 185.431 196.337 183.515C194.398 181.599 191.768 180.523 189.025 180.523C186.283 180.523 183.653 181.599 181.713 183.515C179.774 185.431 178.685 188.029 178.685 190.738V231.596C178.669 236.624 180.083 241.555 182.764 245.829C185.445 250.103 189.286 253.547 193.851 255.771L198.677 258.155C200.972 259.297 202.898 261.05 204.237 263.215C205.577 265.381 206.278 267.874 206.26 270.412V306.163C206.26 308.872 207.35 311.471 209.289 313.386C211.228 315.302 213.858 316.378 216.601 316.378C219.343 316.378 221.974 315.302 223.913 313.386C225.852 311.471 226.942 308.872 226.942 306.163V270.412C226.988 267.887 227.715 265.421 229.048 263.266C230.381 261.112 232.272 259.347 234.525 258.155L239.35 255.771C243.888 253.513 247.705 250.06 250.381 245.794C253.058 241.528 254.489 236.615 254.517 231.596V190.738C254.517 188.029 253.427 185.431 251.488 183.515C249.549 181.599 246.919 180.523 244.176 180.523Z" fill="black" fill-opacity="0.3"/>
</g>
<defs>
<clipPath id="clip0_357_658">
<rect width="496.356" height="496.356" rx="9.99375" fill="white"/>
</clipPath>
</defs>
</svg>
