<svg width="123" height="129" viewBox="0 0 123 129" fill="none" xmlns="http://www.w3.org/2000/svg">
<g clip-path="url(#clip0_2164_7436)">
<g clip-path="url(#clip1_2164_7436)">
<path d="M67.2622 63.3942L55.0625 63.3066L56.5777 54.1799H66.2789L67.2622 63.3942Z" fill="#FFE3C6"/>
<path d="M66.2772 54.1799L67.1516 62.4729L55.5415 60.3022C55.5415 60.3022 56.1412 56.1003 56.5093 54.1873L66.2772 54.1799Z" fill="#FFC087"/>
</g>
<path d="M76.2958 45.198C76.2958 45.198 82.2335 49.3407 80.1548 55.0131C78.7358 58.8904 78.5257 60.4679 80.2285 62.554C80.438 62.8223 80.5583 63.1494 80.5723 63.4895C80.5864 63.8295 80.4936 64.1655 80.307 64.4501C80.1203 64.7348 79.8492 64.9538 79.5317 65.0764C79.2142 65.1991 78.8663 65.2192 78.5368 65.134C73.2404 63.774 66.1859 60.4827 68.1688 52.7132L76.2958 45.198Z" fill="#A36609"/>
<path d="M70.5648 12.867C71.7582 12.7761 72.9552 12.9898 74.0435 13.4881C75.1317 13.9865 76.0755 14.7531 76.7863 15.7161L78.4191 17.5257C82.5323 22.0776 84.4636 28.4981 83.5569 34.9186L83.5348 35.055C83.0129 38.7606 81.3093 42.199 78.6771 44.859L66.4221 54.3903L52.6928 51.7771L47.0868 42.5628C43.7697 37.1116 42.2585 29.7476 45.0154 23.7657C45.1223 23.5298 45.2366 23.2976 45.3545 23.0654C47.8608 18.0897 52.1141 14.3781 57.0972 12.8191L62.6258 11.0868C64.6455 10.4529 67.7858 11.0389 69.5512 12.1925L70.5648 12.867Z" fill="#A36609"/>
<path d="M71.2982 22.1808L64.2069 21.51C61.2035 21.2244 58.1877 21.908 55.601 23.4606C53.0144 25.0133 50.9929 27.3534 49.8326 30.1382C48.8682 33.0434 48.5017 36.1136 48.7551 39.1641C49.0085 42.2147 49.8765 45.1824 51.3069 47.8886L52.044 49.2634L71.2982 22.1808Z" fill="#784C1A"/>
<path d="M72.0466 22.7004C72.0466 22.7004 82.9121 31.83 79.2448 39.5626C77.0186 44.906 73.2202 49.4462 68.3535 52.5805L72.0466 22.7004Z" fill="#784C1A"/>
<path d="M60.0348 56.5979C61.5499 56.7504 63.0799 56.5595 64.5111 56.0395C65.9423 55.5195 67.238 54.6836 68.3018 53.5941C70.1447 51.6996 72.1644 49.127 73.3218 46.1379C73.9735 44.4505 74.5297 42.7278 74.9877 40.9779C76.052 36.8125 75.8336 32.4229 74.3611 28.3838L72.0465 22.7115C69.2933 21.9301 65.0215 21.5357 61.5901 22.4572C59.2491 23.0933 57.0971 24.2873 55.3184 25.937C53.5397 27.5867 52.1873 29.6428 51.377 31.9294C51.3144 32.099 51.2701 32.2206 51.2517 32.2759C50.4593 34.7306 48.9076 43.0271 51.4655 50.0189C52.129 51.81 53.2845 53.3775 54.7991 54.5413C56.3136 55.7051 58.1258 56.418 60.0274 56.5979H60.0348Z" fill="#FFE3C6"/>
<path d="M74.7887 38.726C74.7887 38.726 77.9178 35.2541 79.1378 37.8009C79.1378 37.8009 81.4561 41.951 75.1056 45.9095L73.1743 46.4402L74.7887 38.726Z" fill="#FFE3C6"/>
<path d="M78.2015 39.2639L75.3672 43.0676C75.3672 43.0676 78.1573 43.6389 78.2015 39.2639Z" fill="#E6A57B"/>
<path d="M57.1786 37.0079C57.2853 36.0326 56.8255 35.1822 56.1517 35.1085C55.4778 35.0348 54.8451 35.7658 54.7385 36.7411C54.6319 37.7164 55.0917 38.5668 55.7655 38.6405C56.4393 38.7142 57.072 37.9832 57.1786 37.0079Z" fill="#794B0C"/>
<path d="M69.5414 39.0921C69.6543 38.0602 69.1979 37.1637 68.522 37.0898C67.8462 37.0159 67.2068 37.7926 67.094 38.8245C66.9811 39.8565 67.4375 40.753 68.1134 40.8269C68.7892 40.9008 69.4286 40.1241 69.5414 39.0921Z" fill="#794B0C"/>
<path fill-rule="evenodd" clip-rule="evenodd" d="M62.1401 38.4637C62.3602 38.572 62.4508 38.8382 62.3425 39.0583L60.3965 43.0131L60.396 43.0141C60.312 43.1836 60.2708 43.371 60.2759 43.56C60.281 43.7491 60.3323 43.934 60.4253 44.0987L60.4265 44.1008L60.4265 44.1008L61.3221 45.7078C61.4415 45.9221 61.3646 46.1926 61.1504 46.312C60.9361 46.4314 60.6656 46.3545 60.5462 46.1402L59.6518 44.5354C59.6516 44.5351 59.6514 44.5347 59.6512 44.5343C59.4873 44.2437 59.397 43.9175 59.388 43.584C59.3789 43.2504 59.4516 42.9195 59.5997 42.6204C59.5998 42.6202 59.5999 42.62 59.6 42.6198L61.5455 38.6661C61.6538 38.446 61.9201 38.3554 62.1401 38.4637Z" fill="#A9672F"/>
<path d="M54.0112 41.1725C54.1463 40.3819 53.4068 39.5959 52.3594 39.4169C51.312 39.2379 50.3534 39.7336 50.2183 40.5242C50.0832 41.3147 50.8227 42.1007 51.8701 42.2797C52.9174 42.4588 53.8761 41.963 54.0112 41.1725Z" fill="#FFC087"/>
<path d="M73.3999 44.4847C73.535 43.6942 72.7955 42.9082 71.7481 42.7292C70.7007 42.5501 69.7421 43.0459 69.607 43.8364C69.4718 44.627 70.2114 45.413 71.2587 45.592C72.3061 45.771 73.2647 45.2753 73.3999 44.4847Z" fill="#FFC087"/>
<path d="M59.1945 31.1738C58.0887 30.7131 55.553 30.256 54.4841 30.4366C53.1388 30.6467 52.7334 31.4428 52.7334 31.4428C53.4068 31.4124 54.0815 31.426 54.7532 31.4834C56.596 31.6677 57.816 32.1873 58.5126 32.2795C59.1244 32.3569 59.7031 32.3606 59.6625 31.6492C59.6204 31.5427 59.5572 31.4456 59.4768 31.364C59.3964 31.2823 59.3004 31.2176 59.1945 31.1738Z" fill="#794B0C"/>
<path d="M67.2514 32.4971C68.4603 32.4307 70.9887 32.8398 71.947 33.3522C73.1449 33.9972 73.2628 34.8854 73.2628 34.8854C72.6377 34.6311 71.9962 34.4193 71.3426 34.2515C69.5366 33.8092 68.2208 33.8829 67.5315 33.7502C66.9308 33.6212 66.3816 33.4332 66.658 32.7772C66.7327 32.6926 66.8238 32.6241 66.9258 32.5759C67.0279 32.5278 67.1387 32.5009 67.2514 32.4971Z" fill="#794B0C"/>
<path d="M72.3521 22.5936C72.3521 22.5936 61.4681 31.9553 54.1483 31.0707C54.1483 31.0781 52.8104 16.4532 72.3521 22.5936Z" fill="#A36609"/>
<path d="M58.4535 50.1516C58.612 49.2523 59.7251 47.9401 60.7755 48.1244C61.8259 48.3087 62.4156 49.9267 62.2498 50.8261C62.0839 51.7254 61.1109 52.3003 60.0605 52.1161C59.01 51.9318 58.2913 51.0509 58.4535 50.1516Z" fill="#FF8100"/>
<path d="M90.1271 14.5365H88.0336C88.0416 13.6207 88.2637 12.7193 88.6823 11.9046C89.1008 11.0899 89.7042 10.3845 90.4441 9.84462C90.726 9.63042 90.9537 9.35293 91.1088 9.03455C91.2638 8.71617 91.3418 8.36581 91.3365 8.01174C91.3312 7.65766 91.2428 7.30979 91.0783 6.99618C90.9138 6.68258 90.678 6.41202 90.3897 6.20634C90.1015 6.00065 89.7689 5.86561 89.4188 5.8121C89.0688 5.75858 88.7111 5.7881 88.3745 5.89826C88.038 6.00843 87.732 6.19616 87.4814 6.4463C87.2308 6.69645 87.0424 7.00201 86.9316 7.33833C86.8631 7.54106 86.7334 7.71758 86.5605 7.84364C86.3876 7.9697 86.1799 8.0391 85.9659 8.0423C85.7975 8.04148 85.6317 8.00031 85.4825 7.92224C85.3333 7.84417 85.2049 7.73148 85.1082 7.59361C85.0114 7.45573 84.9492 7.29669 84.9265 7.12979C84.9039 6.9629 84.9216 6.79301 84.9782 6.63436C85.2723 5.77488 85.8275 5.02872 86.5662 4.50009C87.305 3.97147 88.1904 3.68678 89.0988 3.68579C89.7654 3.69267 90.4218 3.85145 91.0179 4.15005C91.614 4.44865 92.1341 4.87921 92.5389 5.40902C92.9436 5.93882 93.2222 6.55392 93.3536 7.20756C93.4849 7.8612 93.4655 8.53618 93.2968 9.18119C93.0124 10.1346 92.4298 10.9717 91.6346 11.5695C91.1749 11.9175 90.8003 12.3654 90.5391 12.8794C90.278 13.3934 90.1371 13.9601 90.1271 14.5365Z" fill="#F7B900"/>
<path d="M89.2607 18.7787C89.9549 18.7787 90.5176 18.2177 90.5176 17.5256C90.5176 16.8335 89.9549 16.2725 89.2607 16.2725C88.5666 16.2725 88.0039 16.8335 88.0039 17.5256C88.0039 18.2177 88.5666 18.7787 89.2607 18.7787Z" fill="#F7B900"/>
<path d="M97.2714 87.661C94.8463 73.7216 81.4229 63.2763 67.9774 63.4164C57.5689 63.2653 45.2734 62.8488 35.8232 69.7595C27.394 75.922 27.3461 81.3548 24.0289 89.5997C20.4391 101.081 31.7395 113.557 44.4331 106.76C46.9615 104.265 76.0123 104.383 76.0123 104.383C77.9215 110.033 90.8362 111.939 95.9741 104.604C99.1991 100.325 98.215 92.7878 97.2714 87.661Z" fill="#CE8930"/>
<path d="M61.561 69.5301C66.3858 69.5301 70.606 67.0874 71.0088 63.5597C69.0028 62.9618 67.0829 62.908 64.99 62.9415L57.2363 62.9415C55.4808 62.9636 54.6619 63.1128 52.9961 63.3673C53.7463 67.4591 57.5507 69.5301 61.561 69.5301Z" fill="#FFE3C6"/>
<path d="M40.5042 77.6396C40.5042 77.6396 37.3308 102.883 34.29 108.397L41.8863 109.134L41.4956 80.9126L40.5042 77.6396Z" fill="#BC7B46"/>
<path d="M76.6501 76.6039L76.2336 64.6365L74.6488 64.1919L74.6045 76.8545L61.2586 78.4873L45.9002 75.793L45.664 65.1186L42.7725 65.9288L43.2354 78.1851L60.8937 80.4849L74.5935 79.5967L76.7607 79.6667L76.6501 76.6039Z" fill="#BC7B46"/>
<path d="M83.0042 93.6061L84.5006 99.6838L84.1136 111.673L80.0335 110.785L80.3911 87.3109L79.9414 78.303L83.0042 93.6061Z" fill="#BC7B46"/>
<path d="M77.8365 64.1683L76.4544 63.8956C76.3471 63.876 76.2368 63.8804 76.1314 63.9085C76.0261 63.9366 75.9282 63.9878 75.845 64.0583C75.7618 64.1288 75.6953 64.2169 75.6503 64.3163C75.6052 64.4156 75.5828 64.5237 75.5846 64.6327L75.7578 79.195L78.4299 78.9186V64.9129C78.435 64.7386 78.3782 64.5683 78.2696 64.432C78.1609 64.2957 78.0075 64.2023 77.8365 64.1683Z" fill="#5A5E47"/>
<path d="M78.4227 78.0414C78.4227 78.0414 76.7309 78.539 75.7985 78.4468L75.7026 76.1101L75.9164 76.5819C76.0676 76.9202 76.299 77.2165 76.5906 77.4452C76.8821 77.6738 77.2251 77.8279 77.5897 77.894L78.4227 78.0414Z" fill="#484C28"/>
<path d="M42.3874 65.219L43.7658 64.9409C43.8734 64.92 43.9841 64.924 44.0899 64.9528C44.1958 64.9816 44.2941 65.0344 44.3777 65.1074C44.4614 65.1803 44.5282 65.2716 44.5735 65.3746C44.6187 65.4776 44.6412 65.5897 44.6393 65.7028L44.5251 79.8586L41.8529 79.5729L41.794 65.9733C41.7924 65.7958 41.8508 65.6233 41.9592 65.4856C42.0675 65.3479 42.2189 65.2536 42.3874 65.219Z" fill="#5A5E47"/>
<path d="M40.5523 77.5732C47.4925 78.174 54.8713 80.0722 60.3593 79.8842C66.437 79.6704 79.9268 78.5905 79.9268 78.5905C79.9268 78.5905 81.1652 106.399 84.4565 110.1L85.1273 119.734L36.4316 119.417L36.756 107.184C40.9061 99.2637 39.0632 90.3811 40.5523 77.5732Z" fill="#F7B900"/>
<path d="M43.7402 83.6659C44.7457 83.6659 45.5609 82.8425 45.5609 81.8267C45.5609 80.811 44.7457 79.9875 43.7402 79.9875C42.7346 79.9875 41.9194 80.811 41.9194 81.8267C41.9194 82.8425 42.7346 83.6659 43.7402 83.6659Z" fill="#DBDBDB"/>
<path d="M42.4318 81.2073L42.8003 80.813C42.9117 80.6933 43.0458 80.597 43.1948 80.5298C43.3438 80.4626 43.5048 80.4259 43.6682 80.4218C43.8317 80.4177 43.9943 80.4462 44.1465 80.5058C44.2987 80.5654 44.4375 80.6548 44.5547 80.7687L44.6321 80.8461C44.727 80.9373 44.8067 81.043 44.868 81.1594L45.1997 81.786C45.2821 81.9426 45.3305 82.1147 45.342 82.2913C45.3534 82.4678 45.3275 82.6447 45.2661 82.8106L45.1776 83.0539C45.0778 83.3239 44.8871 83.5507 44.6382 83.6953C44.3894 83.8399 44.0979 83.8933 43.8139 83.8463L43.1062 83.7247C42.808 83.6714 42.5393 83.5115 42.3502 83.2749C42.161 83.0383 42.0643 82.741 42.0779 82.4384V82.0108C42.0977 81.7097 42.223 81.4252 42.4318 81.2073Z" fill="#5A5E47"/>
<path d="M44.6138 82.4864L44.3889 82.8255C44.3556 82.8769 44.3111 82.9201 44.2588 82.952C44.2065 82.9839 44.1477 83.0037 44.0867 83.0098L42.981 83.124C42.9213 83.1295 42.8612 83.1221 42.8046 83.1024C42.748 83.0827 42.6963 83.0511 42.653 83.0098L42.0596 82.4385L42.4761 83.7359C42.5011 83.8159 42.5496 83.8864 42.6154 83.9384C42.6811 83.9903 42.761 84.0212 42.8446 84.027L44.0941 84.0529C44.1537 84.0548 44.213 84.0436 44.2678 84.0201C44.3226 83.9965 44.3715 83.9611 44.4111 83.9165L45.233 83.0024C45.2863 82.9413 45.3215 82.8664 45.3346 82.7863C45.3476 82.7062 45.3379 82.624 45.3067 82.5491C45.2741 82.4883 45.2269 82.4365 45.1694 82.3985C45.1119 82.3604 45.0458 82.3372 44.9771 82.331C44.9084 82.3248 44.8393 82.3358 44.7758 82.3629C44.7124 82.39 44.6567 82.4325 44.6138 82.4864Z" fill="#484C28"/>
<path d="M42.7894 83.7211L42.5425 85.0958L44.5844 85.0332V83.2825L42.7894 83.7211Z" fill="#484C28"/>
<path d="M76.8896 84.5355C77.8952 84.5355 78.7103 83.7121 78.7103 82.6963C78.7103 81.6806 77.8952 80.8572 76.8896 80.8572C75.884 80.8572 75.0688 81.6806 75.0688 82.6963C75.0688 83.7121 75.884 84.5355 76.8896 84.5355Z" fill="#DBDBDB"/>
<path d="M78.1977 82.081L77.8292 81.6866C77.7184 81.5665 77.5847 81.4699 77.436 81.4025C77.2872 81.3351 77.1264 81.2982 76.9632 81.2941C76.7999 81.29 76.6374 81.3187 76.4855 81.3785C76.3335 81.4383 76.1951 81.528 76.0784 81.6424L75.9974 81.7161C75.9035 81.8087 75.8251 81.9157 75.7652 82.033L75.4334 82.6596C75.3511 82.8162 75.3026 82.9883 75.2912 83.1649C75.2798 83.3414 75.3056 83.5184 75.3671 83.6842L75.4556 83.9275C75.5541 84.1983 75.7446 84.426 75.9938 84.5708C76.243 84.7156 76.5351 84.7684 76.8193 84.7199L77.5232 84.5983C77.8218 84.5457 78.091 84.3861 78.2803 84.1493C78.4696 83.9125 78.566 83.6148 78.5515 83.312V82.8844C78.5344 82.5827 78.4087 82.2974 78.1977 82.081Z" fill="#5A5E47"/>
<path d="M76.0199 83.3563L76.241 83.699C76.2757 83.75 76.321 83.7928 76.3738 83.8246C76.4266 83.8565 76.4857 83.8765 76.5469 83.8833L77.6305 83.9939C77.6906 84.0011 77.7514 83.9949 77.8088 83.9758C77.8662 83.9567 77.9186 83.9251 77.9622 83.8833L78.552 83.312L78.1392 84.6094C78.1126 84.6919 78.0611 84.7642 77.9918 84.8164C77.9225 84.8685 77.8388 84.8979 77.7522 84.9006L76.5027 84.9264C76.4432 84.9279 76.384 84.9164 76.3293 84.8929C76.2746 84.8694 76.2256 84.8343 76.1857 84.79L75.3638 83.8759C75.3097 83.8152 75.274 83.7403 75.2609 83.66C75.2479 83.5797 75.258 83.4973 75.2901 83.4226C75.3197 83.3536 75.3674 83.2938 75.4281 83.2497C75.4889 83.2056 75.5604 83.1787 75.6352 83.1719C75.71 83.1651 75.7852 83.1786 75.8529 83.2111C75.9207 83.2435 75.9783 83.2937 76.0199 83.3563Z" fill="#484C28"/>
<path d="M77.8406 84.5909L78.0875 85.9694L76.0493 85.9067V84.156L77.8406 84.5909Z" fill="#484C28"/>
<path d="M41.8604 77.529C41.8604 77.529 43.5521 78.0229 44.4846 77.9344L44.573 75.594L44.3593 76.0694C44.2079 76.4073 43.9764 76.703 43.6848 76.931C43.3932 77.1591 43.0503 77.3124 42.686 77.3779L41.8604 77.529Z" fill="#484C28"/>
<path d="M40.2349 77.4775C40.2541 77.3487 40.3224 77.2323 40.4254 77.1526C40.5284 77.073 40.6582 77.0362 40.7877 77.05L59.4079 79.3093C60.1618 79.3921 60.9214 79.4106 61.6783 79.3646L79.6794 78.1372C79.7582 78.1323 79.8373 78.1431 79.9119 78.1691C79.9865 78.195 80.0552 78.2357 80.1139 78.2885C80.1726 78.3414 80.2201 78.4054 80.2537 78.4769C80.2874 78.5484 80.3064 78.6259 80.3096 78.7048C80.3177 78.8614 80.2639 79.0149 80.1598 79.1322C80.0556 79.2494 79.9096 79.321 79.7531 79.3314L61.7742 80.415C61.0013 80.463 60.2256 80.4445 59.4559 80.3597L40.6882 78.0635C40.6203 78.055 40.5548 78.0329 40.4956 77.9986C40.4364 77.9643 40.3846 77.9185 40.3434 77.8639C40.3022 77.8092 40.2723 77.7469 40.2555 77.6805C40.2388 77.6142 40.2355 77.5451 40.2459 77.4775H40.2349Z" fill="#A57600"/>
<path d="M55.1917 62.7788L54.4546 66.6341C55.8404 69.0961 63.3003 71.5471 67.6126 66.5051L67.174 62.7788H55.1917Z" fill="#FFE3C6"/>
<path d="M55.1917 62.7788L54.4546 66.6341C55.8404 69.0961 63.3003 71.5471 67.6126 66.5051L67.174 62.7788H55.1917Z" fill="#FFE3C6"/>
<path d="M35.9705 89.4965L44.4476 88.0517H44.4918L84.2976 105.507C85.4793 105.985 86.772 106.12 88.0271 105.897C89.2822 105.673 90.4487 105.1 91.3926 104.243C97.5735 98.8619 93.4123 91.1329 88.7057 88.5824C87.74 88.0627 86.0778 87.9006 85.8382 87.8711L42.8775 80.4517C41.4275 80.2295 39.9443 80.4212 38.5984 81.0046L37.9055 81.2994C36.7998 82.0366 36.0037 82.5489 35.2297 83.0538C33.0981 84.4555 31.3104 86.3201 29.9996 88.5087L29.808 88.8257C29.1077 91.542 30.6409 95.2683 31.1532 95.6L35.9705 89.4965Z" fill="#FFE3C6"/>
<path d="M86.7779 105.952L39.0482 82.7517L37.2422 85.2248L84.5591 105.632C85.244 105.906 86.0425 106.014 86.7779 105.952Z" fill="#FFCD9E"/>
<path d="M35.2817 89.1059C35.2817 89.1059 44.3081 88.7594 46.1767 86.3342L45.0083 88.4572C45.0083 88.4572 38.0202 91.1109 35.2817 89.1059Z" fill="#FFCD9E"/>
<path d="M35.2815 89.1057C35.2815 89.1057 32.6057 92.4229 31.0098 93.3701C31.0098 93.3701 35.0862 92.0285 35.9671 89.3821L35.2815 89.1057Z" fill="#FFCD9E"/>
<path d="M34.4631 83.5442L29.3547 88.789L27.8804 90.9414C27.8804 90.9414 27.9504 91.9476 29.4947 90.7387L34.4631 83.5442Z" fill="#FFCD9E"/>
<path d="M81.1945 86.6659L88.2968 84.6498L80.4868 83.6804L81.1945 86.6659Z" fill="#BC7B46"/>
<path d="M50.0319 57.0438L48.5576 59.856L53.7176 59.4469L53.7434 57.9947C53.7504 57.5615 53.615 57.1379 53.358 56.789C53.101 56.4401 52.7366 56.1852 52.3207 56.0634C51.8846 55.9394 51.4192 55.9691 51.0024 56.1476C50.5857 56.3261 50.243 56.6426 50.0319 57.0438Z" fill="#FFCD9E"/>
<path d="M55.6155 57.0474C56.4869 56.8215 57.4091 56.8968 58.2324 57.2611C58.2324 57.2611 60.0531 58.3189 58.6009 60.4898C58.6009 60.4898 60.7313 60.6483 59.961 62.8376C59.961 62.8376 61.9955 63.7259 58.9105 67.0873C58.9105 67.0873 56.5222 69.2987 53.1203 71.8197C53.1203 71.8197 51.576 77.75 50.039 83.4481C50.039 83.4481 49.3019 86.9017 46.7993 94.5053L37.0469 90.8196C37.0469 90.8196 39.3357 85.6596 41.4697 80.9492C43.6038 76.2389 45.524 71.5101 45.524 71.5101C46.3243 68.8575 46.2612 68.4731 46.2612 68.4731C45.9774 63.818 48.5279 59.5868 48.5279 59.5868C49.9137 57.6297 51.4764 57.6961 51.4764 57.6961L55.6155 57.0474Z" fill="#FFE3C6"/>
<path d="M58.2066 60.8916L56.2974 62.0194C56.2974 62.0194 56.4558 60.9395 58.2066 60.8916Z" fill="#FFCD9E"/>
<path d="M53.1129 71.8198C51.8728 72.9432 50.9941 74.4094 50.5881 76.0326L45.5166 94.4243L47.4145 93.7862L53.1129 71.8198Z" fill="#FFCD9E"/>
<path d="M39.8409 84.7346C39.633 84.5883 39.3971 84.4866 39.148 84.4358C38.899 84.385 38.6421 84.3864 38.3935 84.4397C38.145 84.493 37.9102 84.5971 37.7038 84.7456C37.4975 84.894 37.3241 85.0835 37.1945 85.3022C35.7202 87.7422 32.8896 92.3825 30.3354 96.4921C28.8132 98.9431 29.0454 102.249 31.1278 104.969C32.5696 106.873 34.6945 108.143 37.0545 108.511C41.282 109.248 44.9787 107.291 46.184 103.9L50.1129 90.5323C50.1129 90.5323 45.3731 88.2361 43.1617 86.8945C41.9565 86.1721 40.7549 85.3686 39.8409 84.7346Z" fill="#CE8930"/>
<path d="M38.5986 108.673C40.1598 106.57 41.3468 104.214 42.1074 101.707C43.7586 96.4882 45.1408 91.0186 45.2698 88.2285L50.1128 90.5431L47.19 102.057C46.9731 102.655 46.6939 103.228 46.3571 103.767C45.6199 104.936 44.2636 106.915 43.0067 107.626C41.1749 108.669 38.5986 108.673 38.5986 108.673Z" fill="#BC7B46"/>
<path d="M50.4483 93.8456C50.7935 93.2345 50.8991 92.5168 50.7445 91.8322C50.5898 91.1475 50.186 90.5449 49.6116 90.1415C46.0807 87.6573 39.181 83.0797 37.9979 84.3291C36.3983 86.0172 35.4179 87.2777 34.7324 89.8393C34.2201 91.7632 42.2512 94.9182 46.3092 96.3777C46.9395 96.6059 47.6304 96.603 48.2588 96.3695C48.8872 96.1359 49.4123 95.6869 49.7406 95.1025L50.4483 93.8456Z" fill="#EAA65C"/>
<path d="M55.1917 62.7788L54.4546 66.6341C55.8404 69.0961 63.3003 71.5471 67.6126 66.5051L67.174 62.7788H55.1917Z" fill="#FFE3C6"/>
<path d="M55.1917 62.7788L54.4546 66.6341C55.8404 69.0961 63.3003 71.5471 67.6126 66.5051L67.174 62.7788H55.1917Z" fill="#FFE3C6"/>
</g>
<defs>
<clipPath id="clip0_2164_7436">
<rect width="121.629" height="129" fill="white" transform="translate(0.51416)"/>
</clipPath>
<clipPath id="clip1_2164_7436">
<rect width="12.1629" height="9.21429" fill="white" transform="translate(55.0625 54.1799)"/>
</clipPath>
</defs>
</svg>
